<svg width="61" height="61" viewBox="0 0 61 61" fill="none" xmlns="http://www.w3.org/2000/svg">
<rect x="-0.00195312" width="60.3661" height="60.3661" rx="30.1831" fill="#904FD5"/>
<g clip-path="url(#clip0_179_1902)">
<path d="M40.5443 29.0478C40.0813 29.0478 39.707 29.4229 39.707 29.885V38.8273C39.707 39.2887 39.3319 39.6646 38.8697 39.6646H21.7052C21.2439 39.6646 20.8679 39.2887 20.8679 38.8273V35.7411L25.9336 30.6755L28.5501 33.292C29.1831 33.925 30.2875 33.925 30.918 33.292L35.2585 28.9523C35.5859 28.6258 35.5859 28.0958 35.2585 27.7684C34.9311 27.441 34.402 27.441 34.0746 27.7684L29.734 32.1081L27.1175 29.4915C26.4644 28.8376 25.4011 28.8384 24.7488 29.4915L20.8679 33.3732V21.6545C20.8679 21.1931 21.2439 20.8172 21.7052 20.8172H31.4597C31.9219 20.8172 32.297 20.4421 32.297 19.9799C32.297 19.5177 31.9219 19.1426 31.4597 19.1426H21.7052C20.3204 19.1426 19.1934 20.2696 19.1934 21.6545V38.8273C19.1934 40.2122 20.3204 41.3392 21.7052 41.3392H38.8697C40.2546 41.3392 41.3816 40.2122 41.3816 38.8273V29.885C41.3816 29.4229 41.0074 29.0478 40.5443 29.0478Z" fill="white"/>
<path d="M43.6615 21.9452L42.239 21.4328C40.8901 20.9463 39.8376 19.8938 39.3512 18.545L38.8387 17.1224C38.6997 16.7347 38.3297 16.4735 37.9169 16.4727C37.916 16.4727 37.9152 16.4727 37.9144 16.4727C37.5016 16.4727 37.1298 16.7331 36.99 17.1224L36.4776 18.545C35.9911 19.8938 34.9386 20.9463 33.5897 21.4328L32.1672 21.9452C31.7778 22.085 31.5166 22.4568 31.5166 22.8704C31.5166 23.284 31.7778 23.6558 32.1663 23.7948L33.5889 24.3072C34.9378 24.7937 35.9903 25.8462 36.4767 27.195L36.9891 28.6184C37.1298 29.0069 37.5007 29.2673 37.9135 29.2673H37.916C38.3297 29.2665 38.7006 29.0036 38.8379 28.6176L39.3503 27.195C39.8368 25.8462 40.8893 24.7937 42.2381 24.3072L43.6607 23.7948C44.0492 23.655 44.3113 23.284 44.3113 22.8704C44.3113 22.4568 44.0492 22.085 43.6615 21.9452ZM37.9127 26.2765C37.2579 24.7409 36.0422 23.5252 34.5066 22.8696C36.0422 22.214 37.2579 20.9991 37.9135 19.4635C38.5683 20.9991 39.784 22.2148 41.3196 22.8696C39.7849 23.526 38.5691 24.7409 37.9127 26.2765Z" fill="white"/>
</g>
<defs>
<clipPath id="clip0_179_1902">
<rect width="30.6328" height="30.6328" fill="white" transform="translate(16.3672 15.5693)"/>
</clipPath>
</defs>
</svg>
