<svg width="62" height="61" viewBox="0 0 62 61" fill="none" xmlns="http://www.w3.org/2000/svg">
<rect x="0.870117" width="61.1302" height="60.3661" rx="30.1831" fill="#E5531E"/>
<path d="M45.2756 38.5712C45.2756 39.2153 45.0197 39.8331 44.5642 40.2886C44.1087 40.7441 43.491 41 42.8468 41H20.9874C20.3433 41 19.7255 40.7441 19.27 40.2886C18.8145 39.8331 18.5586 39.2153 18.5586 38.5712V25.2127C18.5586 24.5685 18.8145 23.9507 19.27 23.4952C19.7255 23.0397 20.3433 22.7839 20.9874 22.7839H25.8451L28.2739 19.1406H35.5603L37.9891 22.7839H42.8468C43.491 22.7839 44.1087 23.0397 44.5642 23.4952C45.0197 23.9507 45.2756 24.5685 45.2756 25.2127V38.5712Z" stroke="white" stroke-width="1.56186" stroke-linecap="round" stroke-linejoin="round"/>
<path d="M31.9171 36.1424C34.5999 36.1424 36.7747 33.9675 36.7747 31.2847C36.7747 28.6019 34.5999 26.4271 31.9171 26.4271C29.2343 26.4271 27.0595 28.6019 27.0595 31.2847C27.0595 33.9675 29.2343 36.1424 31.9171 36.1424Z" stroke="white" stroke-width="1.56186" stroke-linecap="round" stroke-linejoin="round"/>
</svg>
