<svg width="61" height="61" viewBox="0 0 61 61" fill="none" xmlns="http://www.w3.org/2000/svg">
<rect x="0.0761719" width="60.3661" height="60.3661" rx="30.1831" fill="#127BD5"/>
<path d="M40.039 27H36.6331C36.1581 27 35.7734 27.3847 35.7734 27.8597C35.7734 28.3348 36.1581 28.7194 36.6331 28.7194H40.039C40.8005 28.7194 41.42 29.4028 41.42 30.2423V38.3805C41.42 39.2201 40.8005 39.9035 40.039 39.9035H19.1003C18.3389 39.9035 17.7194 39.2201 17.7194 38.3805V30.2423C17.7194 29.4028 18.3389 28.7194 19.1003 28.7194H22.5053C22.9803 28.7194 23.365 28.3348 23.365 27.8597C23.365 27.3847 22.9803 27 22.5053 27H19.1003C17.3908 27 16 28.4546 16 30.2423V38.3805C16 40.1682 17.3908 41.6229 19.1003 41.6229H40.039C41.7486 41.6229 43.1394 40.1682 43.1394 38.3805V30.2423C43.1394 28.4546 41.7486 27 40.039 27Z" fill="white"/>
<path d="M24.7246 30.4861L28.6443 34.6859V20.2477C28.6443 19.7727 29.029 19.388 29.504 19.388C29.9791 19.388 30.3637 19.7727 30.3637 20.2477V34.6859L34.2835 30.4861C34.453 30.3048 34.6824 30.213 34.9123 30.213C35.1226 30.213 35.3328 30.2896 35.4989 30.4443C35.8462 30.7686 35.8649 31.3124 35.5406 31.6592L30.6963 36.8489C30.3893 37.1785 29.9545 37.3672 29.504 37.3672C29.0535 37.3672 28.6188 37.1785 28.3117 36.8489L23.4674 31.6592C23.1437 31.3124 23.1624 30.7681 23.5092 30.4443C23.8565 30.1201 24.4003 30.1393 24.7246 30.4861Z" fill="white"/>
</svg>
