<svg width="61" height="61" viewBox="0 0 61 61" fill="none" xmlns="http://www.w3.org/2000/svg">
<rect x="-0.00390625" width="60.3661" height="60.3661" rx="30.1831" fill="#27A83E"/>
<g clip-path="url(#clip0_177_1997)">
<path d="M36.6753 36.5377C35.3409 36.5377 34.1387 37.114 33.3043 38.0306L25.7994 33.3825C25.9998 32.8695 26.1109 32.3124 26.1109 31.7296C26.1109 31.1466 25.9998 30.5894 25.7994 30.0767L33.3043 25.4284C34.1387 26.345 35.3409 26.9214 36.6753 26.9214C39.1889 26.9214 41.2338 24.8766 41.2338 22.363C41.2338 19.8494 39.1889 17.8047 36.6753 17.8047C34.1617 17.8047 32.1168 19.8496 32.1168 22.3632C32.1168 22.946 32.2281 23.5031 32.4283 24.016L24.9236 28.6642C24.0892 27.7476 22.887 27.1711 21.5526 27.1711C19.039 27.1711 16.9941 29.2162 16.9941 31.7296C16.9941 34.2432 19.039 36.2881 21.5526 36.2881C22.887 36.2881 24.0892 35.7118 24.9236 34.795L32.4283 39.4432C32.2281 39.9561 32.1168 40.5132 32.1168 41.0962C32.1168 43.6096 34.1617 45.6545 36.6753 45.6545C39.1889 45.6545 41.2338 43.6096 41.2338 41.0962C41.2338 38.5826 39.1889 36.5377 36.6753 36.5377ZM33.779 22.3632C33.779 20.7662 35.0783 19.4669 36.6753 19.4669C38.2722 19.4669 39.5715 20.7662 39.5715 22.3632C39.5715 23.9602 38.2722 25.2595 36.6753 25.2595C35.0783 25.2595 33.779 23.9602 33.779 22.3632ZM21.5526 34.6259C19.9554 34.6259 18.6561 33.3266 18.6561 31.7296C18.6561 30.1326 19.9554 28.8333 21.5526 28.8333C23.1496 28.8333 24.4487 30.1326 24.4487 31.7296C24.4487 33.3266 23.1496 34.6259 21.5526 34.6259ZM33.779 41.096C33.779 39.499 35.0783 38.1997 36.6753 38.1997C38.2722 38.1997 39.5715 39.499 39.5715 41.096C39.5715 42.693 38.2722 43.9923 36.6753 43.9923C35.0783 43.9923 33.779 42.693 33.779 41.096Z" fill="#F9F9FB"/>
</g>
<defs>
<clipPath id="clip0_177_1997">
<rect width="28.3984" height="28.3984" fill="white" transform="translate(14.6016 17.3613)"/>
</clipPath>
</defs>
</svg>
